<svg enable-background="new 0 0 128 128" viewBox="0 0 128 128" xmlns="http://www.w3.org/2000/svg" xmlns:xlink="http://www.w3.org/1999/xlink"><linearGradient id="a" gradientUnits="userSpaceOnUse" x1="68.398" x2="68.398" y1="4.6955" y2="111.44"><stop offset=".0146" stop-color="#ffc107"/><stop offset="1" stop-color="#ffa000"/></linearGradient><linearGradient id="b" gradientUnits="userSpaceOnUse" x1="23.585" x2="108.85" y1="115.99" y2="115.99"><stop offset=".0091529" stop-color="#bdbdbd"/><stop offset="1" stop-color="#fff"/></linearGradient><clipPath id="c"><path d="m20.47 4.25h95.85v106.92h-95.85z"/></clipPath><path d="m20.47 20.27h92.66v103.74h-92.66z" fill="#757575"/><path d="m20.47 4.25h95.85v106.92h-95.85z" fill="url(#a)"/><g fill="#ffe082"><path d="m95.17 21.56h-46.09c-1.02 0-1.71.7-1.71 1.75v26.24c0 1.05.68 1.75 1.71 1.75h46.09c1.02 0 1.71-.7 1.71-1.75v-26.25c-.01-1.05-.69-1.74-1.71-1.74zm-1.71 26.24h-42.67v-22.75h42.67z"/><path d="m64.44 35.55h15.36c1.02 0 1.71-.7 1.71-1.75s-.68-1.75-1.71-1.75h-15.36c-1.02 0-1.71.7-1.71 1.75s.69 1.75 1.71 1.75z"/><path d="m59.32 42.55h25.6c1.02 0 1.71-.7 1.71-1.75s-.68-1.75-1.71-1.75h-25.6c-1.02 0-1.71.7-1.71 1.75s.69 1.75 1.71 1.75z"/></g><path d="m23.59 111.17h85.27v9.62h-85.27z" fill="url(#b)"/><g fill="#757575"><path clip-path="url(#c)" d="m14.76-.03h12.83v128.31h-12.83z"/><path d="m29.65 20.27h-15.57c-1.26 0-2.29-1.03-2.29-2.29v-.32c0-1.26 1.03-2.29 2.29-2.29h15.57c1.26 0 2.29 1.03 2.29 2.29v.32c0 1.26-1.03 2.29-2.29 2.29z"/><path d="m29.65 34.02h-15.57c-1.26 0-2.29-1.03-2.29-2.29v-.32c0-1.26 1.03-2.29 2.29-2.29h15.57c1.26 0 2.29 1.03 2.29 2.29v.32c0 1.25-1.03 2.29-2.29 2.29z"/><path d="m29.65 47.76h-15.57c-1.26 0-2.29-1.03-2.29-2.29v-.32c0-1.26 1.03-2.29 2.29-2.29h15.57c1.26 0 2.29 1.03 2.29 2.29v.32c0 1.26-1.03 2.29-2.29 2.29z"/><path d="m29.65 61.51h-15.57c-1.26 0-2.29-1.03-2.29-2.29v-.32c0-1.26 1.03-2.29 2.29-2.29h15.57c1.26 0 2.29 1.03 2.29 2.29v.32c0 1.26-1.03 2.29-2.29 2.29z"/><path d="m29.65 75.25h-15.57c-1.26 0-2.29-1.03-2.29-2.29v-.32c0-1.26 1.03-2.29 2.29-2.29h15.57c1.26 0 2.29 1.03 2.29 2.29v.32c0 1.26-1.03 2.29-2.29 2.29z"/><path d="m29.65 89h-15.57c-1.26 0-2.29-1.03-2.29-2.29v-.32c0-1.26 1.03-2.29 2.29-2.29h15.57c1.26 0 2.29 1.03 2.29 2.29v.32c0 1.26-1.03 2.29-2.29 2.29z"/><path d="m29.65 102.75h-15.57c-1.26 0-2.29-1.03-2.29-2.29v-.32c0-1.26 1.03-2.29 2.29-2.29h15.57c1.26 0 2.29 1.03 2.29 2.29v.32c0 1.26-1.03 2.29-2.29 2.29z"/></g><path d="m113.21 7.25v100.92h-.2c-1.66 0-3 1.34-3 3v9.83h-86.65v-18.26c0-1.01-.5-1.91-1.27-2.45.77-.54 1.27-1.44 1.27-2.45v-8.84c0-1.01-.5-1.91-1.27-2.45.77-.54 1.27-1.44 1.27-2.45v-8.85c0-1.01-.5-1.91-1.27-2.45.77-.54 1.27-1.44 1.27-2.45v-8.85c0-1.01-.5-1.91-1.27-2.45.77-.54 1.27-1.44 1.27-2.45v-8.85c0-1.01-.5-1.91-1.27-2.45.77-.54 1.27-1.44 1.27-2.45v-8.85c0-1.01-.5-1.91-1.27-2.45.77-.54 1.27-1.44 1.27-2.45v-8.85c0-1.01-.5-1.91-1.27-2.45.77-.54 1.27-1.44 1.27-2.45v-8.1h89.85m3-3h-95.85v11.12h-6.23c-1.35 0-2.45 1.1-2.45 2.45s1.1 2.45 2.45 2.45h6.23v8.85h-6.23c-1.35 0-2.45 1.1-2.45 2.45s1.1 2.45 2.45 2.45h6.23v8.85h-6.23c-1.35 0-2.45 1.1-2.45 2.45s1.1 2.45 2.45 2.45h6.23v8.85h-6.23c-1.35 0-2.45 1.1-2.45 2.45s1.1 2.45 2.45 2.45h6.23v8.85h-6.23c-1.35 0-2.45 1.1-2.45 2.45s1.1 2.45 2.45 2.45h6.23v8.85h-6.23c-1.35 0-2.45 1.1-2.45 2.45s1.1 2.43 2.44 2.43h6.23v8.85h-6.23c-1.35 0-2.45 1.1-2.45 2.45s1.1 2.45 2.45 2.45h6.23v21.26h92.66v-12.83h3.2v-106.93z" fill="#424242" opacity=".2"/></svg>